<svg xmlns="http://www.w3.org/2000/svg" viewBox="0 0 99.4 75"><path d="M25.7 27.6c-.5 0-1-.2-1.3-.6L.6 3.2C-.1 2.5-.1 1.3.6.5c.7-.7 1.9-.7 2.7 0l23.8 23.8c.7.7.7 1.9 0 2.7-.4.5-.9.6-1.4.6zM40.4 75c-.4 0-.8-.1-1.2-.2-.7-.3-1.3-.8-1.5-1.5-5.7-13.7-14.3-26.9-14.4-27l-.9-1.3L45 22.3l1.3.9c4.4 3.1 9 6 13.8 8.5 4.2 2.2 8.6 4.2 13 5.8l.2.1.2.1c1.3.9 1.7 2.7 1 4.2-2.9 6.2-7.2 12-13.9 18.7-7.4 7.4-12.3 11-18.8 13.9-.3.4-.9.5-1.4.5zM27.2 45.5c2.3 3.6 8.8 14.4 13.6 25.6 5.8-2.6 10.4-6.1 17.3-13 6.2-6.2 10.2-11.6 12.9-17.2-4.3-1.7-8.5-3.6-12.6-5.7-4.5-2.3-8.8-5-13-7.9L27.2 45.5z"></path><path d="M32.4 16.9L16.9 32.4c-1.1 1.1-1.2 2.7-.4 4l3.9 5.9 21.9-21.9-5.9-3.9c-1.3-.8-3-.7-4 .4zM58 60.8l2.8-2.8-9.8-7.7c-.3-.2-.9.4-.7.7l7.7 9.8z"></path><path d="M58 60.8l2.8-2.8-9.8-7.7c-.3-.2-.9.4-.7.7l7.7 9.8zM48 70.2l3.2-2.3-8.3-9.3c-.3-.3-1 .2-.8.6l5.9 11zM69.1 48.3l-2.3 3.2-9.3-8.3c-.3-.3.2-1 .6-.8l11 5.9z"></path><circle cx="83" cy="47" r="4.6"></circle><circle cx="83" cy="29.2" r="7"></circle><circle cx="96.4" cy="39.3" r="3.1"></circle></svg>