<svg xmlns="http://www.w3.org/2000/svg" width="44.473" height="75" viewBox="0 0 44.473 75"><path d="M29.05 54.683H15.423C10.992 59.718 7.367 64.69 6.33 67.21c2.625 1.005 8.668 1.756 14.52 1.756.436 0 .87-.005 1.3-.013l.085-.003.088.003c.43.008.865.013 1.3.013 5.853 0 11.896-.75 14.52-1.755-1.038-2.522-4.663-7.492-9.092-12.527z"></path><path d="M30.092 46.884v-19.69c1.217-.475 2.063-1.16 2.063-2.16 0-2.88-6.924-3.19-9.9-3.19s-9.902.312-9.902 3.19c0 .992.83 1.673 2.03 2.147v19.703C11.042 50.376-.203 62.587.002 68.393c.05 1.406.684 2.26 1.207 2.727 4.566 4.084 19.387 3.902 20.992 3.87.212.003.64.01 1.234.01 4.057 0 15.844-.316 19.826-3.88.523-.468 1.158-1.32 1.207-2.728.206-5.804-11.038-18.015-14.378-21.508zm-7.838-22.452c2.795 0 4.88.29 6.145.604-1.265.31-3.35.6-6.146.6s-4.88-.29-6.146-.6c1.265-.313 3.35-.604 6.146-.604zm18.71 44.117C38.28 70.946 28.09 71.665 22.2 71.54c-5.802.128-16.01-.592-18.69-2.99-.025-.023-.053-.127-.06-.28-.122-3.43 8.052-13.46 13.894-19.49l.486-.502V27.976c1.647.204 3.312.248 4.424.248 1.104 0 2.75-.044 4.387-.244v20.298l.49.502c5.84 6.03 14.015 16.062 13.892 19.49-.006.153-.034.256-.06.28z"></path><circle cx="16.048" cy="13.772" r="2.401"></circle><circle cx="26.279" cy="11.045" r="4.043"></circle><circle cx="19.846" cy="1.995" r="1.994"></circle></svg>