<svg xmlns="http://www.w3.org/2000/svg" width="75" height="75" viewBox="0 0 75 75"><path d="M28.205 0H7.5C3.36 0 0 3.36 0 7.5v20.706c0 4.14 3.36 7.5 7.5 7.5h20.705c4.14 0 7.5-3.36 7.5-7.5V7.5c0-4.14-3.36-7.5-7.5-7.5zM26.21 20.337v.002h-6.18v6.175c0 1.35-.585 2.1-2.1 2.1-1.51 0-2.1-.75-2.1-2.1v-6.182H9.65c-1.088 0-2.1-.58-2.1-2.098 0-1.512 1.012-2.102 2.1-2.102h6.18V9.876c0-1.337.59-2.094 2.102-2.094 1.514 0 2.1.757 2.1 2.1v6.26h6.18c1.092 0 2.1.584 2.1 2.096 0 1.517-1.005 2.1-2.1 2.1zM67.5 0H46.793c-4.14 0-7.5 3.36-7.5 7.5v20.706c0 4.14 3.36 7.5 7.5 7.5H67.5c4.14 0 7.5-3.36 7.5-7.5V7.5C75 3.36 71.64 0 67.5 0zm-5.432 20.84h-9.832c-1.723 0-2.52-.673-2.52-2.562 0-1.89.797-2.564 2.52-2.564h9.832c1.723 0 2.52.675 2.52 2.564 0 1.89-.79 2.563-2.52 2.563zM28.205 39.293H7.5c-4.14 0-7.5 3.36-7.5 7.5V67.5C0 71.64 3.36 75 7.5 75h20.705c4.14 0 7.5-3.36 7.5-7.5V46.794c0-4.14-3.36-7.5-7.5-7.5zM25.235 62.1v.005c.77.78 1.07 1.906 0 2.97-1.07 1.072-2.198.78-2.97 0l-4.37-4.365-4.366 4.36c-.954.96-1.905 1.074-2.97 0-1.07-1.06-.955-2.01 0-2.97l4.365-4.36-4.365-4.37c-.773-.78-1.074-1.9 0-2.97 1.064-1.068 2.195-.78 2.97 0l4.364 4.37 4.426-4.432c.953-.95 1.904-1.065 2.977 0 1.068 1.07.95 2.02 0 2.97l-4.43 4.432 4.37 4.36zM67.5 39.293H46.793c-4.14 0-7.5 3.36-7.5 7.5V67.5c0 4.14 3.36 7.5 7.5 7.5H67.5c4.14 0 7.5-3.36 7.5-7.5V46.794c0-4.14-3.36-7.5-7.5-7.5zM57.146 46.71h.004c1.31 0 2.37 1.063 2.37 2.368 0 1.31-1.062 2.38-2.37 2.38-1.31 0-2.38-1.064-2.38-2.374 0-1.307 1.064-2.373 2.376-2.373zm.002 19.748h.002-.004.002c-1.315 0-2.38-1.065-2.38-2.373s1.065-2.373 2.378-2.373 2.37 1.06 2.37 2.367-1.062 2.377-2.368 2.378zm7.416-7.483H49.73c-1.5 0-2.2-.585-2.2-2.23 0-1.65.697-2.24 2.2-2.24h14.835c1.5 0 2.2.586 2.2 2.24 0 1.647-.7 2.23-2.2 2.23z"></path></svg>