<svg xmlns="http://www.w3.org/2000/svg" viewBox="0 0 52.2 75"><path d="M45.6 75H6.7C3 75 0 72 0 68.3V15.8c0-3.7 3-6.6 6.7-6.6h38.9c3.7 0 6.6 3 6.6 6.6v52.5c0 3.7-3 6.7-6.6 6.7zM6.7 13c-1.6 0-2.8 1.3-2.8 2.8v52.5c0 1.6 1.3 2.8 2.8 2.8h38.9c1.6 0 2.8-1.3 2.8-2.8V15.8c0-1.6-1.3-2.8-2.8-2.8H6.7z"></path><path d="M26.1 11.8c-3.3 0-5.9-2.6-5.9-5.9S22.9 0 26.1 0 32 2.6 32 5.9s-2.6 5.9-5.9 5.9zm0-8.9c-1.7 0-3 1.4-3 3s1.4 3 3 3 3-1.4 3-3-1.3-3-3-3z"></path><path d="M34.7 4.3h-4.4c.2.5.3 1.1.3 1.6 0 2.5-2 4.5-4.5 4.5s-4.5-2-4.5-4.5c0-.6.1-1.1.3-1.6h-4.4c-1.4 0-2.5 1.1-2.5 2.5v6.8c0 1.4 1.1 2.5 2.5 2.5h17.1c1.4 0 2.5-1.1 2.5-2.5V6.7c.1-1.3-1-2.4-2.4-2.4zM38.2 23.3H19.7c-.1 0-.3.1-.4.2l-8.4 8.4c-.1.1-.2.2-.2.4v25.5c0 1.8 1.4 3.2 3.2 3.2h24.3c1.8 0 3.2-1.4 3.2-3.2V26.5c.1-1.8-1.4-3.2-3.2-3.2zm.8 34.4c0 .4-.4.8-.8.8H14c-.4 0-.8-.4-.8-.8V32h5.9c.2 0 .4-.2.4-.4v-5.9h18.8c.4 0 .8.4.8.8v31.2z"></path><path d="M33.7 42.9H18.5c-.4 0-.8-.4-.8-.8s.4-.8.8-.8h15.2c.4 0 .8.4.8.8s-.4.8-.8.8zM33.7 46.7H18.5c-.4 0-.8-.4-.8-.8s.4-.8.8-.8h15.2c.4 0 .8.4.8.8s-.4.8-.8.8zM33.7 50.5H18.5c-.4 0-.8-.4-.8-.8s.4-.8.8-.8h15.2c.4 0 .8.4.8.8s-.4.8-.8.8z"></path></svg>