<svg xmlns="http://www.w3.org/2000/svg" width="128.543" height="75" viewBox="0 0 128.543 75"><path d="M54.67 58.458l-6.728-6.598 8.918-9.045-8.954-8.78 6.614-6.71 8.948 8.78 8.915-9.05 6.728 6.602L70.2 42.7l8.716 8.553-6.61 6.718-8.716-8.555-8.92 9.043z"></path><path d="M0 0v75h128.543V0H0zm110.23 6.23c2.01.003 3.633 1.624 3.633 3.625 0 2.002-1.625 3.626-3.633 3.626-2.007 0-3.628-1.62-3.628-3.62 0-2.004 1.622-3.627 3.627-3.63zM96.157 9.856c0-2.002 1.622-3.624 3.63-3.624 2.005 0 3.632 1.623 3.632 3.625s-1.627 3.626-3.633 3.626c-2.005 0-3.63-1.62-3.63-3.62v-.005zm-.392 6.647l-.924.382-.79-1.91.924-.383.79 1.912zm-1.185-2.866l-.923.382-.79-1.91.924-.383.79 1.91zM91.714 9.1c.783.414 1.378 1.002 1.675 1.655l-.91.414c-.203-.447-.652-.88-1.23-1.186l.465-.884zm-.596 7.22l-1.033 1.052-1.365-1.34-1.398 1.417-1.056-1.033L87.662 15l-1.4-1.376 1.035-1.05 1.4 1.375 1.398-1.418 1.053 1.034-1.395 1.416 1.364 1.34zM88.46 8.535h1.04c.374 0 .76.05 1.143.15l-.25.968c-.303-.078-.603-.118-.894-.118h-1.04v-1zm-3.1 0h2.067v1H85.36v-1zm-3.1 0h2.066v1H82.26v-1zm-3.103 0h2.067v1h-2.067v-1zm-3.1 0h2.066v1h-2.067v-1zm-2.597 0h1.563v1H73.46c-.145 0-.292.01-.44.03l-.128-.99c.188-.026.38-.04.568-.04zm-1.682.325l.36.932c-.6.23-1.126.605-1.442 1.025l-.8-.603C70.33 9.64 71 9.16 71.78 8.86zM69.37 11.24l.924.383-.79 1.91-.925-.383.79-1.91zm-.75 3.515l.756 1.847-.924.382-.77-1.86.937-.37zm-.397-.942l-.924.382-.77-1.86.924-.38.77 1.858zm-2.62-4.528c.66.42 1.14.955 1.388 1.548l.08.19-.924.384-.08-.192c-.164-.396-.52-.782-1-1.087l.538-.843zm-3.156-.753h.62c.5 0 1.028.092 1.53.267l-.33.945c-.397-.138-.813-.21-1.2-.21h-.62v-1zm1.215 3.997l1.053 1.035-1.395 1.415 1.364 1.34-1.034 1.052-1.364-1.34-1.397 1.417-1.057-1.033L61.23 15l-1.4-1.376 1.033-1.05 1.4 1.375 1.4-1.42zM59.43 8.535h2.012v1H59.43v-1zm-3.018 0h2.012v1h-2.012v-1zm-3.016 0h2.01v1h-2.01v-1zm-3.018 0h2.012v1h-2.012v-1zm-3.018 0h2.012v1H47.36v-1zm-1.086.067l.17.986c-.586.1-1.162.346-1.622.688l-.598-.803c.586-.432 1.313-.742 2.05-.87zm-3.168 2.236c.077-.186.178-.368.3-.542l.817.576c-.08.114-.145.23-.193.348l-.574 1.388-.924-.382.574-1.388zm55.675 8.79h17.826v45.56H10.537v-45.56h1.28c2.043-.04 2.885-1.842 2.922-1.925l2.905-7.024c.466-1.125 2.006-1.993 3.46-1.993h16.04c1.455 0 2.995.868 3.46 1.993l1.283 3.102.26-.625.923.382-.64 1.55 1.13 2.737c.23.427 1.097 1.768 2.86 1.802h23.63c-.535-.445-.86-.944-1.007-1.215l-.207-.497.924-.382.186.45c.073.13.346.58.824.947l-.533.696h26.246c-.536-.444-.862-.945-1.007-1.214l-.24-.573.925-.382.218.525c.07.126.34.57.81.932l-.553.71h2.146zm21.885-6.145c-2.006 0-3.632-1.62-3.632-3.62 0-2.005 1.626-3.63 3.632-3.63s3.632 1.623 3.632 3.625-1.626 3.626-3.632 3.626z"></path></svg>