<svg xmlns="http://www.w3.org/2000/svg" width="107.048" height="75" viewBox="0 0 107.048 75"><path d="M37.26 32.092c-1.23 0-2.233 1-2.233 2.232v7.045c0 1.23 1 2.23 2.233 2.23h23.433c1.23 0 2.232-1 2.232-2.23v-7.05c0-1.23-1-2.24-2.232-2.24-1.23 0-2.23 1-2.23 2.23v4.81H39.49v-4.81c0-1.23-1-2.23-2.23-2.23z"></path><path d="M49.053 8.76c-1.23 0-2.23 1-2.23 2.23v14.752l-4.155-4.153c-.786-.8-2.374-.8-3.156-.01-.422.42-.655.98-.655 1.57s.23 1.15.653 1.58l7.96 7.96c.11.11.232.21.426.33l.313.16c.06.02.12.04.25.08l.18.04c.13.024.27.04.41.04.15 0 .3-.017.53-.07l.11-.04c.48-.115.86-.48.92-.546l7.802-7.807c.427-.42.66-.98.66-1.585 0-.6-.23-1.16-.65-1.57-.784-.79-2.367-.79-3.158 0l-4 4V10.99c0-1.23-1-2.234-2.23-2.234z"></path><path d="M13.954 52.356H63.59c.12-1.35.358-2.665.703-3.938h-50.34V9.25c0-.03-.09-1.603 1.093-2.87.948-1.013 2.408-1.527 4.34-1.527h60.52c.006-.005 1.77-.225 3.075.917.88.768 1.33 1.94 1.33 3.48v22.865c.82-.086 1.64-.133 2.48-.133.81 0 1.6.042 2.39.12V5.157C89.23 2.787 86.87 0 84.01 0H13.942C11.22 0 8.786 2.528 8.786 5.157v47.2h5.168zm49.535 2.07H1.34c-.42.207-.773.518-1.015.93-.457.778-.438 1.72.047 2.586l3.226 5.76c.674 1.204 2.107 2.043 3.483 2.043H66.4c-1.853-3.34-2.914-7.182-2.914-11.265l.003-.055zm-3.99 6.51H38.45c-.55 0-.998-.444-.998-.997 0-.56.446-1 .998-1h21.053c.552 0 .998.44.998.99s-.44.99-.99.99z"></path><path d="M86.228 33.36c-11.48 0-20.822 9.337-20.822 20.818C65.406 65.66 74.746 75 86.228 75c11.48 0 20.82-9.34 20.82-20.822 0-11.48-9.34-20.82-20.82-20.82zm10.538 27.19l-3.874 3.87-6.372-6.37-6.374 6.373-3.875-3.87 6.38-6.377-6.37-6.374 3.88-3.87 6.37 6.368 6.38-6.37 3.88 3.872-6.374 6.374 6.37 6.374z"></path></svg>