<svg xmlns="http://www.w3.org/2000/svg" width="75" height="75" viewBox="450.469 256.396 75 75"><path d="M489.688 296.045c0-.955-.773-1.73-1.727-1.73-.956 0-1.728.774-1.728 1.73 0 .516.227.977.587 1.293l1.097 8.332 1.084-8.25c.42-.316.688-.815.688-1.375z"></path><path d="M488.047 286.11h-.086v7.104c.135-.022.272-.043.412-.043 1.355 0 2.456 1.102 2.456 2.46 0 .667-.268 1.27-.7 1.713l-1.09 8.296c2.242-.226 4.32-1.195 5.936-2.812 1.85-1.85 2.868-4.31 2.868-6.925 0-5.4-4.393-9.793-9.795-9.793z"></path><path d="M521.275 331.396h-66.61c-2.314 0-4.196-1.882-4.196-4.193V260.59c0-2.312 1.88-4.193 4.195-4.193h66.61c2.312 0 4.193 1.882 4.193 4.193v66.613c0 2.31-1.88 4.193-4.193 4.193zm-66.12-4.688h65.626v-65.625h-65.624v65.625z"></path><path d="M477.864 307.9l-4.004-3.84c-.736-.707-1.908-.684-2.615.058L464 311.67l-5.86-5.834v17.625h17.705l-5.293-5.265 7.365-7.677c.71-.74.686-1.91-.053-2.617zM497.933 279.763l4.004 3.84c.736.71 1.908.683 2.615-.055l7.245-7.555 5.862 5.835v-17.625H499.95l5.292 5.264-7.364 7.68c-.71.737-.685 1.908.053 2.616zM501.907 303.925l-3.838 4.003c-.71.737-.685 1.907.053 2.616l7.557 7.245-5.838 5.862h17.628v-17.708l-5.266 5.294-7.678-7.363c-.74-.71-1.91-.688-2.62.05zM473.89 283.74l3.84-4.004c.706-.738.684-1.91-.056-2.616l-7.557-7.245 5.837-5.862h-17.626v17.707l5.267-5.29 7.677 7.362c.74.71 1.91.684 2.618-.053zM498.806 287.12l1.52-1.52-4.308-4.308-2.023 2.023-.367-.244c-1.242-.56-2.59-.938-4.016-1.112v-.925h.954v-3.398h-5.3v3.398h.952v.923c-1.357.174-2.746.56-4.002 1.132l-.382.258-1.99-1.99-4.308 4.31 1.532 1.533c-1.828 2.343-2.928 5.28-2.928 8.482 0 7.637 6.192 13.83 13.83 13.83s13.826-6.19 13.826-13.83c.002-3.237-1.125-6.2-2.99-8.56zm-10.828 19.643c-6.12 0-11.083-4.964-11.083-11.087 0-6.12 4.962-11.083 11.083-11.083 6.123 0 11.083 4.963 11.083 11.083.003 6.123-4.958 11.087-11.082 11.087z"></path></svg>