<svg xmlns="http://www.w3.org/2000/svg" width="75" height="75" viewBox="7 2.5 75 75"><path d="M77.806 77.5h-66.61C8.882 77.5 7 75.62 7 73.307V6.693C7 4.38 8.882 2.5 11.196 2.5h66.61C80.12 2.5 82 4.38 82 6.693v66.614c0 2.312-1.88 4.193-4.194 4.193zm-66.118-4.687h65.624V7.187H11.688v65.626z"></path><path d="M34.396 54.004l-4.003-3.84c-.737-.707-1.91-.684-2.616.057l-7.246 7.556-5.86-5.834v17.625h17.706L27.084 64.3l7.365-7.677c.707-.742.682-1.912-.054-2.62zM54.462 25.866l4.004 3.84c.736.707 1.908.683 2.615-.056l7.247-7.554 5.862 5.835V10.307H56.482l5.29 5.266-7.36 7.678c-.71.738-.688 1.91.05 2.616zM58.438 50.027L54.6 54.032c-.708.737-.683 1.907.054 2.616l7.56 7.244-5.84 5.863H74V52.048l-5.266 5.294-7.677-7.363c-.74-.712-1.91-.688-2.62.047zM30.42 29.84l3.84-4c.706-.738.682-1.91-.057-2.618l-7.555-7.246 5.836-5.862H14.86V27.82l5.265-5.29 7.677 7.363c.74.71 1.912.687 2.617-.052zM44.52 39.884c.173.128.326.28.455.45l9.396 1.24c-.227-5.2-4.526-9.36-9.784-9.36h-.088v7.57h.02l.003.1zM44.85 41.916c-.315-.414-.813-.684-1.373-.684-.956 0-1.73.77-1.73 1.728 0 .954.774 1.728 1.73 1.728.517 0 .978-.23 1.293-.586l8.33-1.1-8.248-1.086h-.002z"></path><path d="M55.335 33.225l1.52-1.52-4.308-4.31-2.023 2.024-.367-.245c-1.242-.56-2.59-.94-4.016-1.114v-.922h.955V23.74h-5.3v3.398h.953v.922c-1.358.173-2.748.56-4.002 1.132l-.383.258-1.99-1.99-4.31 4.31 1.534 1.532c-1.83 2.344-2.928 5.282-2.928 8.485 0 7.636 6.19 13.828 13.83 13.828 7.637 0 13.826-6.19 13.826-13.828.004-3.24-1.123-6.204-2.99-8.562zM44.507 52.867c-6.123 0-11.083-4.965-11.083-11.088 0-6.12 4.962-11.084 11.083-11.084 6.123 0 11.084 4.963 11.084 11.083.003 6.122-4.958 11.087-11.083 11.087z"></path></svg>