<svg xmlns="http://www.w3.org/2000/svg" width="75" height="75" viewBox="635.532 320.755 75 75"><path d="M706.337 395.755h-66.61c-2.312 0-4.194-1.882-4.194-4.193V324.95c0-2.313 1.882-4.194 4.195-4.194h66.61c2.313 0 4.194 1.88 4.194 4.194v66.612c0 2.312-1.88 4.193-4.195 4.193zm-66.116-4.688h65.626v-65.625H640.22v65.625z"></path><path d="M662.928 372.258l-4-3.837c-.738-.707-1.91-.683-2.617.058l-7.246 7.553-5.86-5.833v17.623h17.705l-5.292-5.266 7.364-7.676c.708-.74.685-1.91-.054-2.62zM682.996 344.125l4.003 3.84c.737.708 1.91.683 2.615-.055l7.247-7.556 5.863 5.836v-17.626H685.02l5.29 5.266-7.362 7.677c-.713.74-.688 1.91.048 2.618zM686.974 368.285l-3.843 4.004c-.705.734-.682 1.904.06 2.614l7.552 7.245-5.833 5.86h17.623v-17.706l-5.268 5.29-7.676-7.363c-.738-.705-1.91-.682-2.616.055zM658.953 348.1l3.84-4.004c.707-.737.684-1.907-.058-2.616l-7.553-7.246 5.836-5.86h-17.625v17.706l5.266-5.29 7.675 7.362c.74.708 1.91.684 2.618-.052zM671.987 358.906c-.413.317-.683.812-.683 1.376 0 .955.77 1.728 1.727 1.728.955 0 1.73-.772 1.73-1.728 0-.517-.23-.98-.588-1.295l-1.097-8.33-1.086 8.25h-.003z"></path><path d="M683.87 351.18l1.52-1.52-4.31-4.31-2.023 2.023-.367-.243c-1.24-.562-2.59-.94-4.015-1.113v-.923h.952v-3.398h-5.298v3.398h.95v.92c-1.358.175-2.746.564-4 1.135l-.383.255-1.99-1.988-4.31 4.31 1.534 1.53c-1.825 2.347-2.926 5.283-2.926 8.484 0 7.638 6.19 13.83 13.83 13.83 7.636 0 13.825-6.19 13.825-13.83 0-3.238-1.125-6.204-2.99-8.56zm-10.83 19.64c-6.12 0-11.083-4.965-11.083-11.088 0-6.12 4.962-11.083 11.084-11.083 6.124 0 11.084 4.963 11.084 11.082.004 6.123-4.96 11.087-11.083 11.087z"></path></svg>