<svg xmlns="http://www.w3.org/2000/svg" width="119" height="75" viewBox="0 0 119 75"><path d="M14.804 0v11.365h92.24v49.43H119V0H14.804zm86.258 8.006c-1.233 0-2.233-.996-2.233-2.227 0-1.233 1-2.23 2.232-2.23 1.23 0 2.23.996 2.23 2.23 0 1.23-.996 2.226-2.23 2.226zm6.418 0c-1.233 0-2.232-.996-2.232-2.227 0-1.233 1-2.23 2.232-2.23 1.232 0 2.233.996 2.233 2.23 0 1.23-.998 2.226-2.233 2.226zm6.42 0c-1.23 0-2.23-.996-2.23-2.227 0-1.233.998-2.23 2.232-2.23 1.233 0 2.234.996 2.234 2.23 0 1.23-1 2.226-2.234 2.226h-.003z"></path><path d="M0 14.205V75h104.196V14.205H0zm87.35 5.05c1.63.002 2.945 1.316 2.945 2.94 0 1.622-1.316 2.938-2.943 2.938-1.626 0-2.94-1.314-2.94-2.936-.002-1.624 1.315-2.94 2.94-2.94zm-11.405 2.938c0-1.623 1.314-2.938 2.94-2.938 1.627 0 2.945 1.314 2.945 2.938s-1.318 2.94-2.944 2.94c-1.625 0-2.94-1.315-2.94-2.937v-.003zM94.52 67.045H8.542V30.113h1.04c1.62-.032 2.305-1.425 2.362-1.55l2.36-5.704c.378-.913 1.626-1.616 2.807-1.616h12.998c1.18 0 2.43.703 2.808 1.615l2.4 5.8c.19.354.892 1.425 2.31 1.453h56.895v36.932zm1.29-41.912c-1.625 0-2.943-1.314-2.943-2.936 0-1.625 1.318-2.94 2.944-2.94s2.944 1.313 2.944 2.937-1.317 2.94-2.943 2.94z"></path><path d="M51.86 53.54H37.566c-3.524 0-6.393-2.854-6.393-6.376v-3.566c0-3.512 2.868-6.38 6.393-6.38h11.818l-.15.798c-.063.324-.094.64-.094.943v2.456H37.566c-1.206 0-2.19.98-2.19 2.184v3.566c0 1.203.98 2.184 2.19 2.184h14.3c.89 0 1.684-.537 2.022-1.365l.17-.414h4.23l-.154.796c-.573 3-3.213 5.18-6.276 5.18h.002v-.005z"></path><path d="M65.277 58.914H53.044l.152-.797c.066-.334.1-.662.1-.98v-2.522h11.98c1.266 0 2.295-1.027 2.295-2.285v-3.703c0-1.264-1.028-2.29-2.293-2.29H50.442c-.936 0-1.77.562-2.124 1.437l-.17.42h-4.344l.153-.797c.593-3.104 3.32-5.357 6.485-5.357H65.28c3.642 0 6.607 2.96 6.607 6.594v3.7c-.004 3.628-2.97 6.583-6.607 6.583l-.003-.003z"></path></svg>