<svg xmlns="http://www.w3.org/2000/svg" width="119" height="75" viewBox="0 0 119 75"><path d="M14.805 0v11.365h92.24v49.43H119V0H14.805zm86.258 8.006c-1.233 0-2.234-.996-2.234-2.227 0-1.233 1-2.23 2.233-2.23 1.23 0 2.23.996 2.23 2.23 0 1.23-.996 2.226-2.23 2.226zm6.418 0c-1.232 0-2.23-.996-2.23-2.227 0-1.233.998-2.23 2.23-2.23 1.233 0 2.233.996 2.233 2.23 0 1.23-.997 2.226-2.232 2.226zm6.42 0c-1.23 0-2.228-.996-2.228-2.227 0-1.233.997-2.23 2.23-2.23 1.234 0 2.234.996 2.234 2.23 0 1.23-1 2.226-2.233 2.226h-.003z"></path><path d="M0 14.205V75h104.197V14.205H0zm87.352 5.05c1.63.003 2.945 1.316 2.945 2.94 0 1.622-1.317 2.938-2.944 2.938s-2.94-1.314-2.94-2.936c-.002-1.624 1.314-2.94 2.94-2.94zm-11.406 2.938c0-1.623 1.314-2.938 2.94-2.938 1.627 0 2.945 1.314 2.945 2.938s-1.317 2.94-2.943 2.94c-1.625 0-2.94-1.315-2.94-2.937v-.003zM94.52 67.045H8.543V30.113H9.58c1.655-.032 2.338-1.492 2.368-1.56l2.355-5.694c.378-.913 1.626-1.616 2.806-1.616h13c1.18 0 2.428.703 2.806 1.615l2.396 5.792c.187.346.888 1.433 2.316 1.46h56.894v36.933zm1.292-41.912c-1.626 0-2.944-1.314-2.944-2.936 0-1.625 1.318-2.94 2.944-2.94s2.943 1.313 2.943 2.937-1.317 2.94-2.943 2.94z"></path><path d="M44.338 61.346l-5.453-5.348 7.228-7.332-7.257-7.117 5.36-5.44 7.254 7.117 7.228-7.336 5.453 5.353-7.225 7.33 7.067 6.934-5.36 5.445-7.064-6.936-7.23 7.33z"></path></svg>