<svg xmlns="http://www.w3.org/2000/svg" width="93.137" height="75" viewBox="0 0 93.137 75"><path d="M55.853 57.86c0 .754-.61 1.366-1.365 1.366H26.465c-.754 0-1.366-.61-1.366-1.366 0-.754.61-1.366 1.36-1.366h28.02c.75 0 1.36.612 1.36 1.366zm0 5.708c0 .754-.61 1.366-1.365 1.366H26.465c-.754 0-1.366-.612-1.366-1.366 0-.754.61-1.366 1.36-1.366h28.02c.75 0 1.36.612 1.36 1.366zM25.1 30.358c0 1.04-.844 1.884-1.885 1.884h-11.31c-1.04 0-1.885-.844-1.885-1.885 0-1.04.844-1.885 1.885-1.885h11.31c1.04 0 1.885.844 1.885 1.885zM50.546 0c-.596.008-1.042.694-1.042.694v11.31s-.055 1.165.596 1.983c.94 1.182 2.58 1.19 2.58 1.19h11.705s.694-.17.694-.643c0-.793-.74-1.294-.74-1.294L51.87.694S51.24-.01 50.545 0zm31.428 29.242c-6.166 0-11.164 4.998-11.164 11.164 0 6.166 4.998 11.163 11.164 11.163s11.163-5 11.163-11.17-4.997-11.16-11.163-11.16zm6.89 15.558l-2.493 2.497-4.39-4.397-4.39 4.4-2.5-2.497 4.4-4.393-4.4-4.396 2.5-2.494 4.4 4.395 4.396-4.395 2.493 2.497-4.397 4.398 4.396 4.393z"></path><path d="M76.828 52.384l-.71-.375-.448.66c-.973 1.45-2.41 2.28-3.942 2.28h-6.945v-3.48h1.837c1.25 0 2.23-1.17 2.23-2.67 0-.628-.217-2.07-2.23-2.07H14.333c-2.013 0-2.23 1.442-2.23 2.07 0 1.49.98 2.662 2.23 2.662h1.837v3.484H9.227c-2.79 0-5.06-2.72-5.06-6.064V31.46c0-3.344 2.27-6.065 5.06-6.065h62.5c1.532 0 2.97.833 3.942 2.284l.44.67.71-.38c.66-.35 1.36-.65 2.08-.89l1.06-.358-.58-.958c-1.72-2.85-4.59-4.55-7.67-4.55h-6.94v-3.76h-4.16v3.76H20.34V9.62c0-2.79 2.27-5.06 5.06-5.06h21.62V.392H25.4c-5.088 0-9.228 4.14-9.228 9.23v11.61H9.227C4.14 21.23 0 25.82 0 31.464v17.43C0 54.54 4.14 59.13 9.227 59.13h6.944v8.413c0 4.12 4.14 7.46 9.23 7.46h30.16c5.09 0 9.23-3.34 9.23-7.46v-8.41h6.95c3.08 0 5.95-1.7 7.67-4.54l.58-.957-1.06-.352c-.72-.235-1.42-.534-2.083-.884zm-21.272 18.45h-30.16c-2.694 0-5.06-1.54-5.06-3.293V51.48h40.28v16.06c0 1.755-2.365 3.293-5.06 3.293z"></path></svg>