<svg xmlns="http://www.w3.org/2000/svg" viewBox="0 0 41.7 75"><path d="M20.8 58C9.3 58 0 48.7 0 37.2c0-1.1.9-1.9 1.9-1.9s1.9.9 1.9 1.9c0 9.3 7.6 16.9 16.9 16.9 9.3 0 16.9-7.6 16.9-16.9 0-1.1.9-1.9 1.9-1.9s1.9.9 1.9 1.9C41.7 48.7 32.3 58 20.8 58z"></path><path d="M20.8 75c-1.1 0-1.9-.9-1.9-1.9V57.8c0-1.1.9-1.9 1.9-1.9 1.1 0 1.9.9 1.9 1.9V73c.1 1.1-.8 2-1.9 2z"></path><path d="M34.1 75H7.5c-1.1 0-1.9-.9-1.9-1.9 0-1.1.9-1.9 1.9-1.9h26.6c1.1 0 1.9.9 1.9 1.9.1 1-.8 1.9-1.9 1.9zM20.8 0C13.5 0 7.5 6 7.5 13.3v.2h8.6c.9 0 1.7.8 1.7 1.7 0 .9-.8 1.7-1.7 1.7H7.5V21h8.6c.9 0 1.7.8 1.7 1.7s-.8 1.7-1.7 1.7H7.5v13.1c0 7.3 6 13.3 13.3 13.3s13.3-6 13.3-13.3V13.3C34.1 6 28.2 0 20.8 0z"></path></svg>