<svg xmlns="http://www.w3.org/2000/svg" viewBox="0 0 65 75"><path d="M32.5 21.6c-6 0-10.9 4.9-10.9 10.9s4.9 10.9 10.9 10.9 10.9-4.9 10.9-10.9-4.9-10.9-10.9-10.9zM32.5 75c-1.1 0-1.9-.9-1.9-1.9V62.7c0-1.1.9-1.9 1.9-1.9 1.1 0 1.9.9 1.9 1.9V73c0 1.1-.8 2-1.9 2z"></path><path d="M46.1 75H18.9c-1.1 0-1.9-.9-1.9-1.9 0-1.1.9-1.9 1.9-1.9h27.2c1.1 0 1.9.9 1.9 1.9.1 1-.8 1.9-1.9 1.9zM17.3 30.9c.8-7.7 7.3-13.7 15.2-13.7 7.9 0 14.4 6 15.2 13.7H65C64.2 13.7 49.9 0 32.5 0S.8 13.7 0 30.9h17.3zM32.5 47.8c-7.9 0-14.4-6-15.2-13.7H0C.8 51.3 15.1 65 32.5 65S64.2 51.4 65 34.1H47.7c-.8 7.7-7.3 13.7-15.2 13.7z"></path></svg>