<svg xmlns="http://www.w3.org/2000/svg" width="111.915" height="75" viewBox="0.686 -0.459 111.915 75"><path d="M44.518 26.63s61.964 9.215 9.127 22.33l1.4-4.446-24.973 8.99 24.973 8.993-1.69-4.767c68.692-26.23-8.837-31.1-8.837-31.1z"></path><path d="M112.6 60.544V9.5L95.5.45l.02 5.762c-17.078 8.2-47.73 8.637-63.566 7.074C14.7 11.582 2.436 8.146 2.314 8.11l-1.63-.46v40.188l1.775-.743c.155-.065 15.83-6.55 35.178-8.6 0 0 11.404-1.327 25.657 1.672l2.926-2.1c-12.466-2.97-25.608-2.238-27.45-2.114-11.715.79-30.834 6.327-35.525 8.088V11c3.922.992 14.59 3.46 28.4 4.827 16.142 1.598 40.64 2.57 63.948-6.565V52.06c-2.827-2.565-7.756-4.733-10.994-6.57l-2.194 2.44c3.15 1.893 10.257 5.203 13.188 7.795v18.718h3.54c.605.063 1.193.1 1.763.1 2.707 0 5.008-.74 6.876-2.217 4.948-3.912 4.834-11.49 4.827-11.782zm-6.423 9.778c-1.59 1.254-3.667 1.79-6.195 1.62V5.15c2.902 1.674 6.858 3.968 10.06 5.824v49.6c-.002.065.083 6.64-3.865 9.75z"></path></svg>