<svg xmlns="http://www.w3.org/2000/svg" viewBox="0 0 98.7 75"><path d="M84.1 28.2c-1.8 0-3.2 1.4-3.2 3.2 0 .2 0 .4.1.6L58.1 43.8c-.6-.6-1.4-1-2.3-1-.8 0-1.5.3-2 .7L41.2 35v-.5c0-1.8-1.4-3.2-3.2-3.2s-3.2 1.4-3.2 3.2v.5L16.2 47.4c-.6-.5-1.3-.7-2-.7-1.8 0-3.2 1.4-3.2 3.2s1.4 3.2 3.2 3.2 3.2-1.4 3.2-3.2c0-.3-.1-.6-.1-.9l18.4-12.2c.6.6 1.4 1 2.4 1 .9 0 1.8-.4 2.3-1l12.4 8.3c-.1.3-.2.6-.2.9 0 1.8 1.4 3.2 3.2 3.2 1.8 0 3.2-1.4 3.2-3.2 0-.2 0-.4-.1-.6l22.9-11.8c.6.6 1.4.9 2.2.9 1.8 0 3.2-1.4 3.2-3.2s-1.3-3.1-3.1-3.1z"></path><path d="M96.8 0h-95C.8 0 0 .8 0 1.9v71.2c0 1 .8 1.9 1.9 1.9h95c1 0 1.9-.8 1.9-1.9V1.9c-.1-1.1-.9-1.9-2-1.9zM22 5.1c1.4 0 2.6 1.2 2.6 2.6 0 1.4-1.2 2.6-2.6 2.6-1.4 0-2.6-1.2-2.6-2.6.1-1.5 1.2-2.6 2.6-2.6zm-7.5 0c1.4 0 2.6 1.2 2.6 2.6 0 1.4-1.2 2.6-2.6 2.6S12 9.1 12 7.7c0-1.5 1.1-2.6 2.5-2.6zM7 5.1c1.4 0 2.6 1.2 2.6 2.6 0 1.4-1.2 2.6-2.6 2.6S4.5 9.1 4.5 7.7c0-1.5 1.1-2.6 2.5-2.6zm87.2 65.4H4.5V14.4h89.8v56.1z"></path></svg>