<svg xmlns="http://www.w3.org/2000/svg" width="88.863" height="75" viewBox="0 0 88.863 75"><path d="M33.107 23.375h38.63v3.67h-38.63zM33.107 30.717h25.31v3.67h-25.31zM33.107 38.058h31.477v3.672H33.107z"></path><path d="M11 11v37.54h66.863V11H11zm15.144 2.333c1.06 0 1.917.858 1.917 1.917s-.857 1.917-1.916 1.917-1.917-.858-1.917-1.917.858-1.917 1.917-1.917zm-5.114 0c1.06 0 1.917.858 1.917 1.917s-.858 1.917-1.917 1.917-1.917-.858-1.917-1.917.86-1.917 1.917-1.917zm-5.113 0c1.06 0 1.917.858 1.917 1.917s-.858 1.917-1.917 1.917S14 16.31 14 15.25s.858-1.917 1.917-1.917zM74.863 45.54H14V19.5h60.863v26.04zm0-28.373h-44.28v-3.834h44.28v3.834z"></path><path d="M17.834 23.375h12.75V41.73h-12.75z"></path><path d="M84.863 0H4C1.79 0 0 1.79 0 4v51.552c0 2.21 1.79 4 4 4h36.235v5.42c-11.117.39-19.42 1.93-19.42 3.77v2.394C20.814 73.27 31.984 75 45.76 75s24.947-1.73 24.947-3.864V68.74c0-1.84-8.306-3.38-19.423-3.77v-5.42h33.575c2.21 0 4-1.79 4-4V4c0-2.21-1.79-4-4-4zm-2 53.552H6V6h76.863v47.552z"></path></svg>