<svg xmlns="http://www.w3.org/2000/svg" viewBox="0 0 60.7 75"><path d="M16.6 34c.4.4 1 .7 1.6.7.6 0 1.1-.2 1.6-.7.9-.9.9-2.3 0-3.2l-3.5-3.5c-.9-.9-2.3-.9-3.2 0-.9.9-.9 2.3 0 3.2l3.5 3.5z"></path><path d="M54.4 38.2L36.8 20.6c-2-2-4.3-3.5-6.9-4.6-.3-2.9-2.8-5.2-5.9-5.2-2.5 0-4.6 1.5-5.5 3.7-4.6.6-8.9 2.7-12.3 6.1-8.4 8.4-8.4 22.1 0 30.5l17.6 17.6C28 72.9 33.5 75 39 75s11-2.1 15.2-6.3c4.1-4.1 6.3-9.5 6.3-15.2s-2-11.2-6.1-15.3zM24.1 13c2 0 3.7 1.6 3.7 3.7 0 2-1.6 3.7-3.7 3.7-2 0-3.7-1.6-3.7-3.7 0-2 1.7-3.7 3.7-3.7zM9.5 23.8c2.5-2.5 5.7-4.2 9.2-4.7.9 2.1 3 3.6 5.4 3.6 1.9 0 3.5-.9 4.6-2.2 1.8.8 3.4 1.9 4.8 3.3C28.2 39.2 14 45.9 9.3 47.7c-6.5-6.6-6.4-17.3.2-23.9zm41.7 41.7c-3.2 3.2-7.5 5-12.1 5s-8.9-1.8-12.1-5L12.7 51.2c6.1-2.7 18.5-9.8 24.3-24l14.2 14.2c3.2 3.2 5 7.5 5 12.1 0 4.5-1.7 8.8-5 12z"></path><path d="M23.9 5c-3.7 0-7.2 1.5-9.7 4.2-.4.4-.4 1.1 0 1.5.4.4 1.1.4 1.5-.1 2.1-2.3 5-3.5 8.2-3.5 4.2 0 8.1 2.3 10 6.1.2.4.5.6.9.6.2 0 .3 0 .5-.1.3-.1.4-.3.5-.6.1-.3.1-.6-.1-.8C33.5 7.8 29 5 23.9 5z"></path><path d="M11.3 8c3.2-3.7 7.8-5.9 12.7-5.9 6.5 0 12.4 3.8 15.1 9.7.2.4.5.6 1 .6.2 0 .3 0 .4-.1.3-.1.5-.3.6-.6.1-.3.1-.6 0-.8C37.9 4.3 31.2 0 23.9 0 18.4 0 13.2 2.4 9.7 6.6c-.2.2-.3.5-.3.8 0 .3.2.5.4.7.4.4 1.1.3 1.5-.1zm-.4-.3z"></path></svg>