<svg xmlns="http://www.w3.org/2000/svg" width="98.64" height="75" viewBox="-112.773 1.934 98.64 75"><path d="M-63.85 23.042v41.536h37.244V23.042H-63.85zm19.59 6.726c6.73.496 12.03 6.05 12.03 12.854 0 4.726-2.574 8.862-6.4 11.104-1.672.975-3.586 1.6-5.628 1.748v-3.53c3.68-.515 6.528-3.66 6.528-7.446s-2.85-6.932-6.53-7.446v-7.284zm5.08 14.73c0 3.366-2.76 6.088-6.143 6.088s-6.142-2.72-6.142-6.087c0-3.366 2.74-6.09 6.142-6.09 3.383 0 6.142 2.722 6.142 6.09zm-7.083-14.73v7.264c-3.75.458-6.657 3.624-6.657 7.468s2.906 7.007 6.657 7.467v3.512c-2.022-.148-3.936-.755-5.59-1.728-3.844-2.247-6.418-6.386-6.418-11.13 0-6.786 5.296-12.34 12.007-12.854zm15.393 31.757c-6.547-1.342-12.358-1.6-13.737-1.654h-1.287c-1.472.07-7.226.33-13.682 1.653-6.84 1.416 3.476-4.045 6.97-5.83 1.84 1.068 4.45 1.715 6.713 1.767h1.287c2.26-.073 4.892-.698 6.73-1.783 3.455 1.783 13.845 7.264 7.006 5.848zM-75.933 7.293c0 2.366 1.92 4.284 4.287 4.284h15.596c2.366 0 4.286-1.918 4.286-4.285V6.22c0-2.367-1.92-4.286-4.286-4.286h-15.596c-2.366 0-4.287 1.92-4.287 4.285v1.073z"></path><path d="M-21.212 9.688h-29.24c-.678 2.09-3.917 3.61-3.917 3.61h-18.96s-3.24-1.52-3.918-3.61h-28.445c-3.906 0-7.08 3.26-7.08 7.266v52.713c0 4.006 3.175 7.267 7.08 7.267h84.482c3.903 0 7.076-3.26 7.076-7.267V16.953c-.003-4.006-3.177-7.267-7.078-7.267v.002zm1.21 59.98c0 .77-.543 1.4-1.21 1.4h-84.486c-.668 0-1.212-.63-1.212-1.4V16.952c0-.772.543-1.398 1.212-1.398h84.487c.666 0 1.21.626 1.21 1.398v52.714h-.002z"></path><path d="M-71.148 55.09v8.99h-29.127V49.86h29.127m-29.127-8.99h29.125v5.228h-29.125v-5.23zm0-8.99h29.125v5.23h-29.125v-5.23zm0-9.338h29.125v5.23h-29.125v-5.23z"></path></svg>