<svg xmlns="http://www.w3.org/2000/svg" viewBox="0 0 85.8 75"><path d="M32.5 21.6c-6 0-10.9 4.9-10.9 10.9s4.9 10.9 10.9 10.9 10.9-4.9 10.9-10.9-4.9-10.9-10.9-10.9zM32.5 75c-1.1 0-1.9-.9-1.9-1.9V62.7c0-1.1.9-1.9 1.9-1.9s1.9.9 1.9 1.9V73c0 1.1-.8 2-1.9 2z"></path><path d="M46.1 75H18.9c-1.1 0-1.9-.9-1.9-1.9 0-1.1.9-1.9 1.9-1.9h27.2c1.1 0 1.9.9 1.9 1.9.1 1-.8 1.9-1.9 1.9zM32.5 47.8c-7.9 0-14.4-6-15.2-13.7H0C.8 51.3 15.1 65 32.5 65S64.2 51.4 65 34.1H47.7c-.8 7.7-7.3 13.7-15.2 13.7zM55.5 18.9c0-2.7.6-5.2 1.8-7.4C51.3 4.4 42.4 0 32.5 0 15.1 0 .8 13.7 0 30.9h17.3c.8-7.7 7.3-13.7 15.2-13.7 7.9 0 14.4 6 15.2 13.7h13c-3.2-3-5.2-7.3-5.2-12z"></path><path d="M72 5.1c-7.6 0-13.8 6.2-13.8 13.8S64.4 32.7 72 32.7s13.8-6.2 13.8-13.8S79.7 5.1 72 5.1zm9.5 9.1L70.3 25.5c-.5.5-1.2.5-1.7 0l-6-6c-.5-.5-.5-1.4 0-2 .5-.5 1.4-.5 2 0l4.9 4.9 10.1-10.1c.5-.5 1.4-.5 2 0 .5.5.5 1.4-.1 1.9z"></path></svg>