<svg xmlns="http://www.w3.org/2000/svg" width="130.75" height="67.578" viewBox="0 0 130.75 67.578"><path d="M127.75 4.98H87.91l-3.565-3.566L82.93 0l-1.413 1.414-2.48 2.48-.58-.582-1.18-1.18L75.863.72 74.45 2.132 71.6 4.98H3c-1.657 0-3 1.344-3 3v56.598c0 1.658 1.343 3 3 3h124.75c1.657 0 3-1.342 3-3V7.98c0-1.656-1.343-3-3-3zM75.862 3.547l1.18 1.178 1.177 1.18.817.817 3.894-3.894 4.022 4.02-3.893 3.894.816.818-32.35 32.35-3.864 1.035L43.8 45.98l1.034-3.863 1.035-3.863 26.93-26.93-1.18-1.178-9.9 9.898-1.178-1.178 15.32-15.32zm37.763 45.433v3h-86.25v-3h86.25zM123 60.154H7.75v-47.75h56.427l-3 3H10.75v41.75H120v-41.75H82.86l2.43-2.43.57-.57H123v47.75zM24.997 49.56l-2.12 2.12-3.472-3.47-3.47 3.47-2.12-2.12 3.47-3.47-3.472-3.472 2.12-2.12 3.472 3.47 3.472-3.472 2.12 2.12-3.47 3.473 3.47 3.47z"></path></svg>