<svg xmlns="http://www.w3.org/2000/svg" viewBox="0 0 111.5 75"><path d="M33.1 23.4h38.6v3.7H33.1zM33.1 30.7h25.3v3.7H33.1zM33.1 38.1h31.5v3.7H33.1z"></path><path d="M11 11v37.5h66.9V11H11zm15.1 2.3c1.1 0 1.9.9 1.9 1.9s-.9 1.9-1.9 1.9-1.9-.9-1.9-1.9.9-1.9 1.9-1.9zm-5.1 0c1.1 0 1.9.9 1.9 1.9s-.9 1.9-1.9 1.9-1.9-.9-1.9-1.9.9-1.9 1.9-1.9zm-5.1 0c1.1 0 1.9.9 1.9 1.9s-.9 1.9-1.9 1.9-1.9-.8-1.9-1.8.9-2 1.9-2zm59 32.2H14v-26h60.9v26zm0-28.3H30.6v-3.8h44.3v3.8z"></path><path d="M17.8 23.4h12.8v18.4H17.8z"></path><path d="M87.1 28.8c-1.8-1.3-3.2-2.9-4.3-4.7v29.4H6V6H83.1c1.2-1.9 2.8-3.5 4.6-4.8C87 .5 86 0 84.9 0H4C1.8 0 0 1.8 0 4v51.6c0 2.2 1.8 4 4 4h36.2V65c-11.1.4-19.4 1.9-19.4 3.8v2.4c0 2.1 11.2 3.9 24.9 3.9 13.8 0 24.9-1.7 24.9-3.9v-2.4c0-1.8-8.3-3.4-19.4-3.8v-5.4h33.6c2.2 0 4-1.8 4-4V30c-.5-.4-1.1-.8-1.7-1.2zM82.9 6h.2"></path><path d="M97.4 1.1c-7.8 0-14.2 6.3-14.2 14.2s6.3 14.2 14.2 14.2 14.2-6.3 14.2-14.2-6.4-14.2-14.2-14.2zm9.7 9.4L95.6 22.1c-.5.5-1.3.5-1.8 0l-6.2-6.2c-.6-.6-.6-1.5 0-2s1.5-.6 2 0l5.1 5.1 10.4-10.4c.6-.6 1.5-.6 2 0s.6 1.4 0 1.9z"></path></svg>