<svg xmlns="http://www.w3.org/2000/svg" viewBox="0 0 59.2 75"><path d="M20.8 58C9.3 58 0 48.7 0 37.2c0-1.1.9-1.9 1.9-1.9s1.9.9 1.9 1.9c0 9.3 7.6 16.9 16.9 16.9 9.3 0 16.9-7.6 16.9-16.9 0-1.1.9-1.9 1.9-1.9s1.9.9 1.9 1.9C41.7 48.7 32.3 58 20.8 58z"></path><path d="M20.8 75c-1.1 0-1.9-.9-1.9-1.9V57.8c0-1.1.9-1.9 1.9-1.9s1.9.9 1.9 1.9V73c.1 1.1-.8 2-1.9 2z"></path><path d="M34.1 75H7.5c-1.1 0-1.9-.9-1.9-1.9 0-1.1.9-1.9 1.9-1.9h26.6c1.1 0 1.9.9 1.9 1.9.1 1-.8 1.9-1.9 1.9zM28.8 18.9c0-4.2 1.6-8 4.1-10.9-2-4.7-6.6-8-12.1-8C13.5 0 7.5 6 7.5 13.3v.2h8.6c.9 0 1.7.8 1.7 1.7 0 .9-.8 1.7-1.7 1.7H7.5V21h8.6c.9 0 1.7.8 1.7 1.7 0 .9-.8 1.7-1.7 1.7H7.5v13.1c0 7.3 6 13.3 13.3 13.3s13.3-6 13.3-13.3V31c-3.2-3.1-5.3-7.4-5.3-12.1z"></path><path d="M45.4 5.1c-7.6 0-13.8 6.2-13.8 13.8s6.2 13.8 13.8 13.8 13.8-6.2 13.8-13.8S53 5.1 45.4 5.1zm9.5 9.1L43.7 25.5c-.5.5-1.2.5-1.7 0l-6-6c-.5-.5-.5-1.4 0-2 .5-.5 1.4-.5 2 0l4.9 4.9L53 12.3c.5-.5 1.4-.5 2 0 .5.5.5 1.4-.1 1.9z"></path></svg>