<svg xmlns="http://www.w3.org/2000/svg" width="90" height="75" viewBox="0 0 90 75"><path d="M72.782 30.404c-1.228-1.207-2.546-2.508-3.67-3.615-5.058 5.044-10.158 10.142-15.02 14.993 1.117 1.248 2.348 2.62 3.46 3.86 5.132-5.137 10.194-10.2 15.23-15.24z"></path><path d="M84 0H6C2.687 0 0 2.684 0 6v63c0 3.31 2.687 6 6 6h78c3.313 0 6-2.69 6-6V6c0-3.316-2.687-6-6-6zm-2.625 5.625l-3 3h-66.75l-3-3h72.75zm-38.233 42.46l1.438 2.948c-6.566-1.25-9.308-2.62-9.462-4.72-.114-1.57 1.36-2.674 2.806-3.2 2.336-1.11 3.838-1.942 4.802-2.544-8.592.656-10.625-.205-11.1-1.89-.523-1.85 1.655-3.242 3-3.906 7.81-3.65 10.68-5.7 11.73-6.677-4.67.342-14.073 3.544-18.368 5.143l-3.155-2.046c1.738-.647 17.146-6.313 22.436-6.115l.11.007c1.025.116 2.3.73 2.52 2.078.28 1.7-.547 4.04-13.973 10.313-.132.066-.27.142-.407.223 1.31.137 3.877.175 8.847-.28l.08-.007h.08c1.16.02 2.496.497 2.774 1.778.35 1.605-.875 3.21-8.156 6.668l-.15.062c-.166.06-.354.146-.52.238.696.403 1.176.906 4.668 1.928zm5.778-.765c1.04-1.09.91-3.568 1.07-5.033.195-1.816.966-3.146 2.264-4.412 5.253-5.14 10.415-10.365 15.615-15.563.333-.334.693-.645 1-.932 3.042 3.1 6.03 6.152 9.112 9.287-.19.21-.527.61-.896.98-5.31 5.313-10.635 10.604-15.91 15.948-.947.955-1.897 1.623-3.282 1.746-2.742.247-5.408.78-7.497 2.778-.35-.293-3.908-1.898-3.908-1.898s1.387-1.81 2.43-2.9zm-35.815 1.1v-8.752h8.75v8.75h-8.75zm8.75 4.338v8.75h-8.75v-8.75h8.75zm-8.75-17.43v-8.75h8.75v8.75h-8.75zm0-13.09v-8.75h8.75v8.75h-8.75zM5.628 66.376V8.625l3 3v51.75l-3 3zm2.997 3l3-3h66.75l3 3H8.625zm75.75-3l-3-3v-51.75l3-3v57.75z"></path></svg>